<?xml version="1.0" standalone="no"?><!DOCTYPE svg PUBLIC "-//W3C//DTD SVG 1.1//EN" "http://www.w3.org/Graphics/SVG/1.1/DTD/svg11.dtd"><svg t="1705455586204" class="icon" viewBox="0 0 1024 1024" version="1.1" xmlns="http://www.w3.org/2000/svg" p-id="4273" xmlns:xlink="http://www.w3.org/1999/xlink" width="200" height="200"><path d="M391.29239703 46.93423408c16.77236148-3.2646637 34.23649185 0.81313185 49.1762726 8.65317925 22.23369482 13.01010963 39.07887408 33.81172148 49.7952237 57.0284563 22.84050963 49.23695408 23.10750815 107.90381037 2.88843852 158.05098667-9.50272 21.90601482-23.26528 42.75617185-43.01103407 56.6765037-17.19713185 12.67029333-39.62500741 18.82339555-60.77857186 14.73346369-17.84035555-3.44670815-34.0908563-13.04651852-46.60337777-26.10517334-19.91566222-19.73361778-32.08836741-45.93588148-39.09101037-72.78136887-9.4905837-39.0060563-7.36673185-80.87627852 6.79632592-118.48666074 9.19931259-24.33327408 24.24832-47.05242075 45.34120297-62.6232889 10.53430518-7.53664 22.5977837-13.21642667 35.48653036-15.14609777zM670.42721185 68.77956741c17.10004148-3.93216 34.50349037 2.40298667 49.11559112 11.03189332 15.17037037 9.42990222 28.38679703 22.01524148 38.61769481 36.65161482 16.10486518 21.83319703 26.32362667 48.12041482 28.56884147 75.18435556 1.45635555 24.41822815-5.36424297 48.4845037-14.41792 70.92451555-10.43721482 24.47890963-25.00077037 47.80487111-45.40188443 65.20832-13.59265185 12.12416-30.41355852 20.70452148-48.43595852 23.67791408-18.50785185 2.9369837-37.71960889 0-55.11092148-6.65069038-19.6486637-7.70654815-36.0448-22.97400889-45.52324741-41.78526815-12.09988741-23.75073185-15.44950518-50.97244445-15.02473482-77.33247999 0.46117925-14.66064592 1.21362963-29.53974518 5.54628741-43.65425778 6.60214518-22.44001185 18.54426075-42.95035259 32.54954667-61.54315852 11.73579852-15.27959703 25.66826667-28.95720297 41.61536-39.81918814 8.5318163-5.49774222 17.94958222-9.72117333 27.90134518-11.89357037zM167.99668148 267.83909924c17.22140445-3.48311703 35.32875852-0.46117925 51.40935111 6.2380563 33.44763259 15.55873185 58.82462815 45.43829333 72.66000593 79.26215112 5.69192297 13.70187852 7.14827852 28.61738667 7.88859259 43.29016889 1.49276445 26.68771555-0.61895111 53.81233778-8.55608889 79.41992296-6.85700741 21.6147437-19.22389333 41.99158518-37.47688297 55.82696297-18.27726222 13.62906075-40.81436445 21.05647408-63.49710222 22.2458311-24.85513482 1.45635555-50.40203852-7.28177778-68.40016592-24.63668147-17.48840297-15.91068445-29.27274667-37.19774815-36.74870519-59.41930667-7.51236741-22.31864889-11.16539259-46.32424297-7.74295703-69.77156741 3.77438815-28.24116148 11.55375408-56.23959703 25.35272296-81.28891259 6.96623408-12.33047703 15.69223111-23.75073185 26.48139852-32.98645333 11.10471111-9.11435852 24.50318222-15.48591408 38.62983111-18.18017187zM828.86656 338.69079702c20.57102222-1.50490075 41.80954075 1.45635555 60.40234667 10.66780446 19.44234667 9.46631111 35.09816889 25.51049482 46.34851555 43.77562074 12.39115852 21.26279111 20.49820445 45.5353837 20.44965926 70.31770074 0.61895111 26.36003555 0.14563555 53.12056889-6.61428148 78.77669926-5.32783408 19.26030222-14.21160297 38.16865185-28.8479763 52.13752889-17.07576889 16.01991111-40.6444563 23.77500445-63.80050962 24.2240474-23.28955259 0.69176889-47.47719111-1.08013037-68.8128-11.25034666-20.82588445-8.89590518-37.0157037-26.89403259-45.28052149-47.80487112-9.52699259-23.87209482-11.4566637-49.92872297-11.34743704-75.39067259-0.0121363-29.53974518 3.2768-59.73485037 15.13396148-87.06578963 7.41527703-16.97867852 18.88407703-32.58595555 34.55203556-42.78044443 13.95674075-9.8425363 31.00823703-14.17519408 47.81700741-15.60727706zM496.92672 436.53361778c23.43518815-2.74280297 47.46505482 1.20149333 69.01911703 10.72848591 33.38695111 14.7456 59.68630518 41.83381333 79.9660563 71.62842074 26.16585482 39.3216 57.75663408 74.66249482 90.69454222 108.37712593 28.37466075 28.30184297 57.67168 55.74200889 88.4978726 81.37386667 6.96623408 6.01960297 14.49073778 11.40811852 20.9351111 18.0224 21.89387852 22.34292148 36.10548148 51.80984889 41.15418075 82.5874963 6.44437333 38.10797037-1.43208297 77.3203437-16.17768297 112.61269332-10.1459437 25.8745837-29.10283852 48.25391408-53.21765925 62.14997335-25.64399408 15.0854163-55.48714667 21.08074667-84.86912 22.99828148-41.42117925 2.34230518-82.87876741-4.07779555-122.72222815-15.0854163-50.76612741-15.99563852-105.40373333-19.61225482-157.80826074-10.32798816-26.00808297 5.44919703-52.1132563 10.75275852-78.60679111 13.16788149-32.30682075 3.42243555-64.90491259 3.76225185-97.3330963 1.96608-23.13178075-0.44904297-46.29997037-6.95409778-65.79086223-19.53943704-21.50551703-12.68242963-38.19292445-32.23400297-50.23213036-53.88515555-10.03671703-18.53212445-16.73595259-38.75119408-21.04433778-59.3343526-6.20164741-30.01306075-4.29624889-61.82229333 6.78418964-90.48822517 15.43736889-40.86290963 45.79024592-74.24986075 79.66264888-100.98612149 8.41045333-7.01477925 17.64617482-12.97370075 25.97167407-20.09770666 17.17285925-16.85731555 36.09334518-31.7970963 53.20552297-48.71509334 26.65130667-25.92312889 51.50644148-54.0793363 70.73033481-86.03420444 25.2192237-43.54503111 70.90024297-75.34212741 121.18091852-81.11900444z" p-id="4274"></path></svg>