<?xml version="1.0" standalone="no"?><!DOCTYPE svg PUBLIC "-//W3C//DTD SVG 1.1//EN" "http://www.w3.org/Graphics/SVG/1.1/DTD/svg11.dtd"><svg t="1703316434073" class="icon" viewBox="0 0 1024 1024" version="1.1" xmlns="http://www.w3.org/2000/svg" p-id="4787" xmlns:xlink="http://www.w3.org/1999/xlink" width="200" height="200"><path d="M526.78 263.33q-3.81-72.45 18.13-115c16.59-35.67-29.8-43.42-37.37-7.4C501 173.88 493 207.11 493 266.22q0 59.1 33.78-2.89z" fill="#F79106" p-id="4788"></path><path d="M501.2 303.1a13 13 0 0 1-3.19-0.41c-11.46-2.92-13-19.26-13-36.47 0-54.31 6.82-87.89 12.84-117.52 0.63-3.14 1.27-6.25 1.89-9.37 3.17-15.12 12.66-26 25.4-29.09 10-2.45 19.92 0.54 25.9 7.82 6.82 8.29 7.24 20.54 1.16 33.6l-0.2 0.34c-13.9 27-19.7 64.32-17.25 111l0.12 2.26-1.09 2C520 292.48 510.5 303.1 501.2 303.1zM532 125.4a12.89 12.89 0 0 0-3 0.38c-6.62 1.62-11.69 7.89-13.55 16.76-0.61 3.05-1.24 6.19-1.88 9.34-6.24 30.3-12.57 61.63-12.57 114.34 0 10.58 0.87 16.22 1.62 19.12 2.7-2.63 7.8-8.93 16.09-23.88-2.29-48.37 4.12-87.62 19-116.68 3.32-7.2 3.66-13.23 0.92-16.56a8.47 8.47 0 0 0-6.63-2.82z" fill="#333333" p-id="4789"></path><path d="M439.62 244h142.66c10.16 0 20.13 8.24 22.27 18.41l9.17 43.72c2.13 10.16-5.93 18.4-18 18.4H426.19c-12.08 0-20.14-8.24-18-18.4l9.18-43.72c2.12-10.22 12.09-18.41 22.25-18.41z" fill="#F79106" p-id="4790"></path><path d="M595.71 332.48H426.19c-8.8 0-16.62-3.41-21.46-9.37a21.94 21.94 0 0 1-4.38-18.68l9.18-43.71c2.91-13.89 16.13-24.77 30.1-24.77h142.65c14 0 27.18 10.88 30.1 24.77l9.17 43.71a21.94 21.94 0 0 1-4.38 18.68c-4.84 5.96-12.66 9.37-21.46 9.37zM439.63 252c-6.35 0-13.1 5.63-14.45 12.05L416 307.72a6.08 6.08 0 0 0 1.15 5.31c1.78 2.19 5.07 3.45 9 3.45h169.56c4 0 7.25-1.26 9-3.45a6.05 6.05 0 0 0 1.15-5.31L596.72 264c-1.35-6.42-8.1-12.05-14.44-12.05z" fill="#333333" p-id="4791"></path><path d="M372.71 280.77h278.58c114.82 0 219.16 103 233.06 230.08l18.13 165.66c13.9 127.07-86.27 230.08-223.72 230.08H345.24c-137.45 0-237.62-103-223.72-230.08l18.13-165.66c13.9-127.07 118.24-230.08 233.06-230.08z" fill="#FAB60D" p-id="4792"></path><path d="M678.76 914.59H345.24c-36.29 0-70.64-6.87-102.1-20.43A221.84 221.84 0 0 1 165 838.5c-39.81-44.4-58.08-102.24-51.45-162.86L131.69 510a275.9 275.9 0 0 1 14.84-63.81 8 8 0 1 1 15 5.44 260.22 260.22 0 0 0-14 60.11l-18.05 165.64c-6.13 56 10.72 109.46 47.46 150.44a205.82 205.82 0 0 0 72.53 51.65c29.45 12.69 61.67 19.12 95.77 19.12h333.52c74.53 0 140.15-31.05 180-85.19a8 8 0 0 1 12.88 9.49c-20.61 28-48.69 51.1-81.19 66.87-33.93 16.48-71.52 24.83-111.69 24.83zM892.05 776a8 8 0 0 1-7.53-10.71c10-27.76 13.35-57.32 10-87.87l-18.12-165.7C863 388.78 762 288.77 651.29 288.77H372.71c-28.33 0-56.44 6.45-83.54 19.17-26.31 12.34-50.35 29.94-71.46 52.29a8 8 0 1 1-11.63-11c22.49-23.82 48.16-42.59 76.29-55.8 29.25-13.72 59.64-20.68 90.34-20.68h278.58c57.65 0 114.47 24.75 160 69.69a278.76 278.76 0 0 1 81 167.52l18.12 165.66c3.61 33 0 65-10.86 95a8 8 0 0 1-7.5 5.38zM171.38 418.5a8 8 0 0 1-7-11.85 282.39 282.39 0 0 1 19.76-31 8 8 0 0 1 12.86 9.41 268 268 0 0 0-18.64 29.28 8 8 0 0 1-6.98 4.16z" fill="#333333" p-id="4793"></path><path d="M800.52 563.09a519.63 519.63 0 0 1 3.06 57c0 155.64-64.9 247.09-162.21 286.45H382.08c-96.41-38.85-160.61-129-160.61-286.45 0-182.37 86.16-301.14 208.76-337.07h163.66c95.28 28.16 168.69 107 197 224.52" fill="#FAB60D" p-id="4794"></path><path d="M642.92 914.59H380.53l-1.44-0.58c-51.9-20.91-92.39-55.26-120.34-102.08-30-50.34-45.28-114.87-45.28-191.79 0-45.21 5.27-87.81 15.65-126.62 10-37.46 24.84-71.51 44-101.17 37.38-57.79 90.92-98.23 154.82-117l1.1-0.32h166l1.11 0.33c49.58 14.65 92.41 41.93 127.32 81.09 35.69 40 61 90.23 75.19 149.22a8 8 0 1 1-15.55 3.75c-13.59-56.4-37.67-104.29-71.59-142.33-32.63-36.6-72.6-62.19-118.81-76.06H431.38c-59.68 17.77-109.73 55.78-144.79 110-37.37 57.76-57.12 133.52-57.12 219.1 0 74 14.48 135.76 43 183.59 25.86 43.32 63.25 75.23 111.16 94.86H639.8c101.92-41.92 155.78-138.16 155.78-278.45a514 514 0 0 0-3-56.17 8 8 0 1 1 15.9-1.75 528.35 528.35 0 0 1 3.11 57.92c0 76.18-15.39 140.43-45.76 191-28.34 47.16-69.2 81.78-121.45 102.92z" fill="#333333" p-id="4795"></path><path d="M360.4 465.69C377 382 409.23 315.14 449.46 280.77h123.83C632.81 331.62 674.74 453.59 674.74 596c0 138.26-39.53 257.27-96.32 310.61H444.33C387.55 853.25 348 734.24 348 596a693.58 693.58 0 0 1 5.73-89.75" fill="#FAB60D" p-id="4796"></path><path d="M581.59 914.59H441.16l-2.31-2.17c-29.3-27.52-54.05-71.39-71.6-126.88C349.43 729.19 340 663.64 340 596a703 703 0 0 1 5.8-90.79 8 8 0 1 1 15.86 2.08A687 687 0 0 0 356 596c0 129.88 35.84 248.08 91.53 302.61h127.68c55.68-54.53 91.53-172.73 91.53-302.61 0-68.07-9.69-133.57-28-189.44-17.24-52.56-40.86-93.2-68.45-117.79H452.46c-37.68 33.64-68.3 98.44-84.21 178.48a8 8 0 1 1-15.69-3.13c8.41-42.31 20.63-80.28 36.32-112.86 15.88-33 34.52-58.75 55.39-76.58l2.24-1.91h129.73l2.25 1.91C641.82 328.79 682.74 454.91 682.74 596c0 67.66-9.42 133.21-27.24 189.56C638 841 613.2 884.9 583.9 912.42z" fill="#333333" p-id="4797"></path><path d="M560.24 732.81c-33.42 0-62.3-9.84-86.15-29.41a8 8 0 0 1 10.15-12.4c27.63 22.67 63.4 30.43 106.31 23.06a8 8 0 0 1 2.71 15.77 194.79 194.79 0 0 1-33.02 2.98z" fill="#333333" p-id="4798"></path><path d="M410.14 623.59c0.87-12.85 11.87-23 25.31-23s24.44 10.16 25.31 23z" fill="#F79106" p-id="4799"></path><path d="M605.71 621.29c0.87-12.85 11.87-23 25.31-23s24.44 10.16 25.31 23z" fill="#F79106" p-id="4800"></path><path d="M469.96 543.06m-20.71 0a20.71 20.71 0 1 0 41.42 0 20.71 20.71 0 1 0-41.42 0Z" fill="#333333" p-id="4801"></path><path d="M598.81 543.06m-20.71 0a20.71 20.71 0 1 0 41.42 0 20.71 20.71 0 1 0-41.42 0Z" fill="#333333" p-id="4802"></path></svg>